<?xml version="1.0" encoding="utf-8"?>
<!-- Generator: Adobe Illustrator 23.0.2, SVG Export Plug-In . SVG Version: 6.00 Build 0)  -->
<svg version="1.1" id="BOTON" xmlns="http://www.w3.org/2000/svg" xmlns:xlink="http://www.w3.org/1999/xlink" x="0px" y="0px"
	 viewBox="0 0 720 720" style="enable-background:new 0 0 720 720;" xml:space="preserve">
<style type="text/css">
	.st0{fill:#FFFFFF;}
</style>
<g id="SCROLL">
	<g>
		<path class="st0" d="M272.8,629.5c0-1.7-0.6-2.9-1.8-3.8s-3.3-1.8-6.3-2.8s-5.5-2-7.2-2.9c-4.8-2.6-7.3-6.1-7.3-10.6
			c0-2.3,0.6-4.4,1.9-6.2c1.3-1.8,3.2-3.2,5.6-4.2s5.2-1.5,8.2-1.5c3,0,5.8,0.6,8.1,1.7c2.4,1.1,4.2,2.7,5.6,4.7s2,4.3,2,6.9h-8.8
			c0-2-0.6-3.5-1.8-4.6s-3-1.6-5.2-1.6c-2.1,0-3.8,0.5-5,1.4c-1.2,0.9-1.8,2.1-1.8,3.6c0,1.4,0.7,2.5,2.1,3.5
			c1.4,0.9,3.5,1.8,6.2,2.6c5,1.5,8.6,3.4,10.9,5.6s3.4,5,3.4,8.3c0,3.7-1.4,6.6-4.2,8.7c-2.8,2.1-6.6,3.1-11.3,3.1
			c-3.3,0-6.3-0.6-9-1.8s-4.8-2.8-6.2-4.9c-1.4-2.1-2.1-4.5-2.1-7.3h8.8c0,4.7,2.8,7.1,8.4,7.1c2.1,0,3.7-0.4,4.9-1.3
			S272.8,631,272.8,629.5z"/>
		<path class="st0" d="M327.1,626.4c-0.3,4.6-2,8.2-5.1,10.8c-3.1,2.6-7.1,4-12.1,4c-5.5,0-9.8-1.8-12.9-5.5s-4.7-8.7-4.7-15.2v-2.6
			c0-4.1,0.7-7.7,2.2-10.8c1.4-3.1,3.5-5.5,6.2-7.2c2.7-1.7,5.8-2.5,9.4-2.5c4.9,0,8.9,1.3,11.9,4c3,2.6,4.7,6.3,5.2,11.1h-8.8
			c-0.2-2.8-1-4.8-2.3-6s-3.3-1.9-6-1.9c-2.9,0-5.1,1-6.6,3.1c-1.5,2.1-2.2,5.4-2.2,9.8v3.2c0,4.6,0.7,8,2.1,10.1
			c1.4,2.1,3.6,3.2,6.6,3.2c2.7,0,4.7-0.6,6.1-1.9c1.3-1.2,2.1-3.2,2.3-5.8H327.1z"/>
		<path class="st0" d="M354.6,625h-7v15.6h-8.8V598h15.8c5,0,8.9,1.1,11.7,3.4c2.7,2.2,4.1,5.4,4.1,9.5c0,2.9-0.6,5.3-1.9,7.3
			s-3.2,3.5-5.7,4.6l9.2,17.4v0.4h-9.4L354.6,625z M347.6,617.9h7.1c2.2,0,3.9-0.6,5.1-1.7c1.2-1.1,1.8-2.7,1.8-4.6
			c0-2-0.6-3.6-1.7-4.7s-2.9-1.7-5.3-1.7h-7.1V617.9z"/>
		<path class="st0" d="M418.2,620.3c0,4.2-0.7,7.9-2.2,11c-1.5,3.2-3.6,5.6-6.4,7.3c-2.8,1.7-5.9,2.6-9.5,2.6
			c-3.5,0-6.7-0.8-9.5-2.5c-2.8-1.7-4.9-4.1-6.4-7.3s-2.3-6.8-2.3-10.9v-2.1c0-4.2,0.8-7.9,2.3-11.1c1.5-3.2,3.7-5.6,6.4-7.4
			c2.8-1.7,5.9-2.6,9.5-2.6c3.6,0,6.7,0.9,9.5,2.6c2.8,1.7,4.9,4.2,6.4,7.4c1.5,3.2,2.3,6.9,2.3,11.1V620.3z M409.3,618.3
			c0-4.5-0.8-7.9-2.4-10.2c-1.6-2.3-3.9-3.5-6.9-3.5c-2.9,0-5.2,1.1-6.8,3.4c-1.6,2.3-2.4,5.7-2.4,10.1v2.1c0,4.4,0.8,7.7,2.4,10.1
			c1.6,2.4,3.9,3.6,6.9,3.6c2.9,0,5.2-1.2,6.8-3.5s2.4-5.7,2.4-10.1V618.3z"/>
		<path class="st0" d="M439.3,633.6H458v7.1h-27.5V598h8.8V633.6z"/>
		<path class="st0" d="M477.8,633.6h18.7v7.1H469V598h8.8V633.6z"/>
	</g>
</g>
<g id="XMLID_1_">
	<g>
		<g>
			<path class="st0" d="M372.7,135.7c24.7,0,48,9.7,65.5,27.3c17.6,17.6,27.3,40.9,27.3,65.5v200c0,24.7-9.7,48-27.3,65.5
				c-17.6,17.6-40.9,27.3-65.5,27.3c-24.7,0-48-9.7-65.5-27.3c-17.6-17.6-27.3-40.9-27.3-65.5v-200c0-24.7,9.7-48,27.3-65.5
				C324.7,145.4,348,135.7,372.7,135.7 M372.7,128.5L372.7,128.5c-55,0-100,45-100,100v200c0,55,45,100,100,100h0
				c55,0,100-45,100-100v-200C472.7,173.5,427.7,128.5,372.7,128.5L372.7,128.5z"/>
		</g>
		<g>
			<path class="st0" d="M372.3,388.5c18.1,0,32.8,14.7,32.8,32.8s-14.7,32.8-32.8,32.8s-32.8-14.7-32.8-32.8
				S354.2,388.5,372.3,388.5 M372.3,381.3c-22.1,0-40,17.9-40,40c0,22.1,17.9,40,40,40c22.1,0,40-17.9,40-40
				C412.3,399.2,394.4,381.3,372.3,381.3L372.3,381.3z"/>
		</g>
	</g>
</g>
</svg>
